<?xml version="1.0" encoding="UTF-8"?>
<svg id="Layer_2" data-name="Layer 2" xmlns="http://www.w3.org/2000/svg" viewBox="0 0 442.54 487.94">
  <defs>
    <style>
      .cls-1 {
        fill: none;
        stroke: #fee475;
        stroke-linecap: round;
        stroke-linejoin: round;
        stroke-width: 13px;
      }

      .cls-2 {
        fill: #fee475;
      }
    </style>
  </defs>
  <g id="Layer_1-2" data-name="Layer 1">
    <path class="cls-2" d="M210.73,1.56c-4.09,1.62-43.75,25.26-200.71,116.37-4.09,1.77-10.02,9.21-10.02,12.53v89.84c0,5.99,4.85,10.84,10.84,10.84h89.64c3.97,0,7.62-2.17,9.52-5.66l3.65-6.71c2.11-3.88,1.2-9.51-2.02-12.52-26.5-24.75-59.08-64.53-56.67-66.59,2.49-2.11,58.16,10.54,89.62,24.66,1.85.83,4.97.14,6.86-.41,1.01-.3,1.89-.93,2.51-1.78,11.64-15.87,26.34-27.36,44.88-33.42.41-.14.78-.37,1.06-.71.79-.92,2.37-2.91,2.7-4.36,3.99-17.77,8.29-50.27,12.27-73.27.89-5.15,8.28-5.15,9.18,0,3.98,23,8.28,55.49,12.27,73.27.32,1.45,1.9,3.43,2.69,4.36.28.33.65.57,1.06.71,17.92,5.92,32.3,18.18,44.93,33.61.61.74,1.41,1.28,2.33,1.56,1.87.56,5.11,1.3,7,.45,31.46-14.11,87.14-26.77,89.62-24.66,2.42,2.05-30.17,41.84-56.67,66.59-3.22,3.01-4.13,8.65-2.02,12.52l3.65,6.71c1.9,3.49,5.55,5.66,9.52,5.66h89.64c5.99,0,10.84-4.85,10.84-10.84v-88.47c.87-7.24-3.83-11.54-8.98-14.5C360.78,77.6,296.64,41.06,227.42,1.46c-4.41-1.46-10.14-2.34-16.25-.07,0,0-.21.08-.44.17ZM226.64,38.88c.13-.02.25-.03.37,0h-.37Z"/>
    <g>
      <path class="cls-1" d="M9.91,254.68v95.41c0,10.31,5.66,19.78,14.74,24.66l198.5,106.69"/>
      <path class="cls-1" d="M436.04,254.68v95.41c0,10.31-5.66,19.78-14.74,24.66l-198.5,106.69"/>
    </g>
    <path class="cls-2" d="M320.66,300.61c-2.17-1.49-3.14-4.2-2.41-6.73,5.85-20.39,7.17-38.46,7.47-45.55.07-1.74-1.51-3.19-3.47-3.19H116.31c-1.96,0-3.53,1.43-3.47,3.16.24,7.15,1.43,25.56,7.34,46.26.71,2.5-.21,5.19-2.35,6.67-22.59,15.64-49.24,46.69-46.15,47.34-.94,2.85,35.28-3.82,60.2-14.55,2.66-1.15,5.74-.2,7.4,2.17,12.09,17.29,29.68,31.77,55.31,37.44,2.46.54,4.34,2.51,4.74,4.99,4.11,25.74,14.78,55.18,16.62,53.12,1.82,2.03,12.18-26.46,16.42-51.91.44-2.61,2.49-4.62,5.1-5.03,29.11-4.63,48.63-20.29,61.72-39.22,1.65-2.38,4.76-3.24,7.41-2.09,24.93,10.84,61.58,17.6,60.64,14.74,3.11-.65-23.9-32.1-46.58-47.64Z"/>
  </g>
</svg>