<?xml version="1.0" encoding="UTF-8"?>
<svg id="Layer_2" data-name="Layer 2" xmlns="http://www.w3.org/2000/svg" viewBox="0 0 439.27 494.57">
  <defs>
    <style>
      .cls-1 {
        fill: none;
        stroke: #fee475;
        stroke-linecap: round;
        stroke-linejoin: round;
        stroke-width: 20px;
      }

      .cls-2 {
        fill: #fee475;
      }
    </style>
  </defs>
  <g id="Layer_1-2" data-name="Layer 1">
    <path class="cls-2" d="M210.85,1.56c-4.09,1.62-43.75,25.26-200.71,116.37C6.05,119.69.12,127.13.12,130.45v89.84c0,5.99,4.85,10.84,10.84,10.84h89.64c3.97,0,7.62-2.17,9.52-5.66l3.65-6.71c2.11-3.88,1.2-9.51-2.02-12.52-26.5-24.75-59.08-64.53-56.67-66.59,2.49-2.11,58.16,10.54,89.62,24.66,1.85.83,4.97.14,6.86-.41,1.01-.3,1.89-.93,2.51-1.78,11.64-15.87,21.2-31.06,39.74-37.13.41-.14,1.88-.81,2.17-1.14.79-.92,2.55-2.63,2.74-4.11,2.28-18.26,6.32-56.33,12.22-74.41,7.17-21.96,10.82-20.78,17,.52,5.25,18.09,11.81,46.74,13.46,75.1.09,1.48,1.48,2.8,2.26,3.72.28.33,3.37,1.37,3.79,1.51,17.92,5.92,25.04,20.69,37.66,36.12.61.74,1.41,1.28,2.33,1.56,1.87.56,5.11,1.3,7,.45,31.46-14.11,87.14-26.77,89.62-24.66,2.42,2.05-30.17,41.84-56.67,66.59-3.22,3.01-4.13,8.65-2.02,12.52l3.65,6.71c1.9,3.49,5.55,5.66,9.52,5.66h89.64c5.99,0,10.84-4.85,10.84-10.84v-88.47c.87-7.24-3.83-11.54-8.98-14.5C360.91,77.6,296.77,41.06,227.54,1.46c-4.41-1.46-10.14-2.34-16.25-.07,0,0-.21.08-.44.17ZM227.95,35.98c.13-.02.25-.03.37,0h-.37Z"/>
    <g>
      <path class="cls-1" d="M10,257.81v95.41c0,10.31,5.57,19.78,14.51,24.66l195.31,106.69"/>
      <path class="cls-1" d="M429.27,257.81v95.41c0,10.31-5.57,19.78-14.51,24.66l-195.31,106.69"/>
    </g>
    <path class="cls-2" d="M321.19,299.28c-2.17-1.49-3.14-4.2-2.41-6.73,5.85-20.39,7.17-38.46,7.47-45.55.07-1.74-1.51-3.19-3.47-3.19H116.84c-1.96,0-3.53,1.43-3.47,3.16.24,7.15,1.43,25.56,7.34,46.26.71,2.5-.21,5.19-2.35,6.67-22.59,15.64-49.24,46.69-46.15,47.34-.94,2.85,35.28-3.82,60.2-14.55,2.66-1.15,5.74-.2,7.4,2.17,12.09,17.29,29.68,31.77,55.31,37.44,2.46.54,4.34,2.51,4.74,4.99,4.11,25.74,14.78,55.18,16.62,53.12,1.82,2.03,12.18-26.46,16.42-51.91.44-2.61,2.49-4.62,5.1-5.03,29.11-4.63,48.63-20.29,61.72-39.22,1.65-2.38,4.76-3.24,7.41-2.09,24.93,10.84,61.58,17.6,60.64,14.74,3.11-.65-23.9-32.1-46.58-47.64Z"/>
  </g>
</svg>